<svg width="158" height="159" viewBox="0 0 158 159" fill="none" xmlns="http://www.w3.org/2000/svg">
<path fill-rule="evenodd" clip-rule="evenodd" d="M79 46.1935C70.8226 46.1935 64.1935 52.8226 64.1935 61H64C64 52.7157 70.7157 46 79 46C87.2843 46 94 52.7157 94 61H93.8065C93.8065 52.8226 87.1774 46.1935 79 46.1935Z" stroke="black" stroke-width="3"/>
<path fill-rule="evenodd" clip-rule="evenodd" d="M79 95.8065C87.1774 95.8065 93.8065 89.1774 93.8065 81L94 81C94 89.2843 87.2843 96 79 96C70.7157 96 64 89.2843 64 81L64.1936 81C64.1935 89.1774 70.8226 95.8064 79 95.8065Z" stroke="black" stroke-width="3"/>
<path d="M2 100V157H156V100" stroke="black" stroke-width="4"/>
<path d="M80.0607 0.93934C79.4749 0.353553 78.5251 0.353553 77.9393 0.93934L68.3934 10.4853C67.8076 11.0711 67.8076 12.0208 68.3934 12.6066C68.9792 13.1924 69.9289 13.1924 70.5147 12.6066L79 4.12132L87.4853 12.6066C88.0711 13.1924 89.0208 13.1924 89.6066 12.6066C90.1924 12.0208 90.1924 11.0711 89.6066 10.4853L80.0607 0.93934ZM80.5 37V2H77.5V37H80.5Z" fill="black"/>
<path d="M80.0607 142.061C79.4749 142.646 78.5251 142.646 77.9393 142.061L68.3934 132.515C67.8076 131.929 67.8076 130.979 68.3934 130.393C68.9792 129.808 69.9289 129.808 70.5147 130.393L79 138.879L87.4853 130.393C88.0711 129.808 89.0208 129.808 89.6066 130.393C90.1924 130.979 90.1924 131.929 89.6066 132.515L80.0607 142.061ZM80.5 106V141H77.5V106H80.5Z" fill="black"/>
<path fill-rule="evenodd" clip-rule="evenodd" d="M79 23.5C36.7502 23.5 2.5 57.7502 2.5 100H1.5C1.5 57.1979 36.1979 22.5 79 22.5C121.802 22.5 156.5 57.1979 156.5 100H155.5C155.5 57.7502 121.25 23.5 79 23.5Z" stroke="black" stroke-width="3"/>
</svg>
